# xmcd
#
# Track frame offsets: 
#        150
#        9966
#        23354
#        36099
#        45729
#        56350
#        72432
#        83185
#        96919
#        109119
#        121545
#        133148
#
# Disc length: 1911 seconds
#
# Revision: 0
# Processed by: cddbd v1.5.2PL0 Copyright (c) Steve Scherf et al.
# Submitted via: ExactAudioCopy v0.95b3
#
DISCID=8e07750c
DTITLE=Brenda Lee  - Too Many Rivers
DYEAR=1900
DGENRE=
TTITLE0=It's Not Unusual
TTITLE1=Call Me Irresponsible
TTITLE2=Too Many Rivers
TTITLE3=Who Can I Turn To (When Nobody Needs Me)
TTITLE4=Whispering
TTITLE5=Stormy Weather
TTITLE6=Hello Dolly
TTITLE7=Unforgettable
TTITLE8=Everybody Loves Somebody
TTITLE9=No One
TTITLE10=Truer Than True
TTITLE11=Think
EXTD=
EXTT0=
EXTT1=
EXTT2=
EXTT3=
EXTT4=
EXTT5=
EXTT6=
EXTT7=
EXTT8=
EXTT9=
EXTT10=
EXTT11=
PLAYORDER=
